<svg width="36" height="36" viewBox="0 0 36 36" fill="none" xmlns="http://www.w3.org/2000/svg">
<path d="M14.0544 5.84639C10.9224 6.91919 8.2512 9.26639 6.768 12.2256C6.2496 13.248 5.8752 14.3352 5.652 15.4584C5.0832 18.252 5.4792 21.2256 6.768 23.7744C7.6032 25.4376 8.8056 26.9136 10.26 28.0656C11.6352 29.16 13.2336 29.9664 14.9328 30.42C17.0712 30.996 19.3536 30.9816 21.5136 30.492C23.4648 30.0456 25.308 29.1096 26.7768 27.756C28.332 26.3232 29.4408 24.444 30.0312 22.4208C30.672 20.2104 30.7584 17.856 30.3552 15.5952C26.3232 15.5952 22.2912 15.5952 18.252 15.5952C18.252 17.2656 18.252 18.9432 18.252 20.6136C20.5848 20.6136 22.9248 20.6136 25.2576 20.6136C24.984 22.2192 24.0336 23.6808 22.68 24.588C21.8304 25.1568 20.8584 25.5312 19.8504 25.704C18.8352 25.8768 17.7912 25.8984 16.7832 25.6968C15.7536 25.4952 14.7744 25.0632 13.9176 24.4584C12.5496 23.5008 11.5056 22.0896 10.9728 20.5128C10.4256 18.9072 10.4184 17.1144 10.9728 15.5088C11.3544 14.3784 11.9952 13.3272 12.8376 12.4776C13.8744 11.412 15.2208 10.656 16.6752 10.3464C17.9208 10.08 19.2312 10.1304 20.448 10.4976C21.4848 10.8144 22.4352 11.376 23.22 12.1248C24.012 11.34 24.7968 10.548 25.5888 9.76319C25.9992 9.33839 26.4384 8.93519 26.8416 8.49599C25.6464 7.38719 24.2352 6.49439 22.7016 5.93279C19.9512 4.90319 16.8336 4.88159 14.0544 5.84639Z" fill="white"/>
<path d="M14.0544 5.8464C16.8336 4.8816 19.9512 4.9032 22.716 5.9256C24.2496 6.4872 25.6536 7.38 26.856 8.4888C26.4528 8.9208 26.0208 9.3312 25.6032 9.756C24.8112 10.5408 24.0264 11.3328 23.2344 12.1176C22.4496 11.3688 21.4992 10.8 20.4624 10.4904C19.2456 10.1232 17.9352 10.0728 16.6896 10.3392C15.2352 10.6488 13.8888 11.412 12.852 12.4704C12.0096 13.32 11.3688 14.3712 10.9872 15.5016C9.58321 14.4144 8.17921 13.32 6.77521 12.2328C8.25121 9.2664 10.9224 6.9192 14.0544 5.8464Z" fill="#E94435"/>
<path d="M5.652 15.4584C5.8752 14.3352 6.2568 13.248 6.768 12.2256C8.172 13.3128 9.576 14.4072 10.98 15.4944C10.4256 17.1 10.4328 18.8928 10.98 20.4984C9.576 21.5856 8.172 22.68 6.768 23.7672C5.4792 21.2328 5.0832 18.252 5.652 15.4584Z" fill="#F8BB15"/>
<path d="M18.2592 15.588C22.2912 15.588 26.3232 15.588 30.3624 15.588C30.7656 17.8488 30.6792 20.2032 30.0384 22.4136C29.448 24.4368 28.3392 26.3232 26.784 27.7488C25.4232 26.6904 24.0552 25.632 22.7016 24.5736C24.0552 23.6736 25.0056 22.2048 25.2792 20.5992C22.9464 20.5992 20.6064 20.5992 18.2736 20.5992C18.252 18.936 18.2592 17.2656 18.2592 15.588Z" fill="#547DBE"/>
<path d="M6.76801 23.7744C8.17201 22.6872 9.57601 21.5928 10.98 20.5056C11.5128 22.0896 12.5568 23.4936 13.9248 24.4512C14.7816 25.056 15.7608 25.4808 16.7904 25.6896C17.7984 25.8912 18.8496 25.8696 19.8576 25.6968C20.8656 25.524 21.8376 25.1496 22.6872 24.5808C24.048 25.6392 25.416 26.6976 26.7696 27.756C25.3008 29.1168 23.4576 30.0456 21.5064 30.492C19.3536 30.9816 17.0712 30.996 14.9256 30.42C13.2264 29.9664 11.628 29.16 10.2528 28.0656C8.8056 26.9064 7.60321 25.4304 6.76801 23.7744Z" fill="#34A751"/>
</svg>
